<svg width="50" height="50" viewBox="0 0 50 50" fill="none" xmlns="http://www.w3.org/2000/svg">
<path d="M17.9321 32.3187C19.24 31.8016 20.6558 31.8027 21.9184 32.3217L30.5493 35.8698V13.0396H16.8286V32.7551L17.932 32.3187H17.9321ZM25.3424 14.5826H27.5044C27.8279 14.5826 28.0903 14.845 28.0903 15.1686C28.0903 15.4921 27.8279 15.7545 27.5044 15.7545H25.3424C25.0188 15.7545 24.7564 15.4921 24.7564 15.1686C24.7564 14.845 25.0188 14.5826 25.3424 14.5826ZM25.3424 17.0606H27.5044C27.8279 17.0606 28.0903 17.323 28.0903 17.6466C28.0903 17.9701 27.8279 18.2325 27.5044 18.2325H25.3424C25.0188 18.2325 24.7564 17.9701 24.7564 17.6466C24.7564 17.323 25.0188 17.0606 25.3424 17.0606ZM25.3424 19.5387H27.5044C27.8279 19.5387 28.0903 19.8011 28.0903 20.1246C28.0903 20.4481 27.8279 20.7105 27.5044 20.7105H25.3424C25.0188 20.7105 24.7564 20.4481 24.7564 20.1246C24.7564 19.8011 25.0188 19.5387 25.3424 19.5387ZM25.3424 22.0167H27.5044C27.8279 22.0167 28.0903 22.2791 28.0903 22.6026C28.0903 22.9262 27.8279 23.1886 27.5044 23.1886H25.3424C25.0188 23.1886 24.7564 22.9262 24.7564 22.6026C24.7564 22.2791 25.0188 22.0167 25.3424 22.0167ZM25.3424 24.4947H27.5044C27.8279 24.4947 28.0903 24.7571 28.0903 25.0807C28.0903 25.4042 27.8279 25.6666 27.5044 25.6666H25.3424C25.0188 25.6666 24.7564 25.4042 24.7564 25.0807C24.7564 24.7571 25.0188 24.4947 25.3424 24.4947ZM25.3424 27.2754H27.5044C27.8279 27.2754 28.0903 27.5378 28.0903 27.8613C28.0903 28.1849 27.8279 28.4473 27.5044 28.4473H25.3424C25.0188 28.4473 24.7564 28.1849 24.7564 27.8613C24.7564 27.5378 25.0188 27.2754 25.3424 27.2754ZM25.3424 29.9048H27.5044C27.8279 29.9048 28.0903 30.1672 28.0903 30.4907C28.0903 30.8143 27.8279 31.0767 27.5044 31.0767H25.3424C25.0188 31.0767 24.7564 30.8143 24.7564 30.4907C24.7564 30.1672 25.0188 29.9048 25.3424 29.9048ZM19.8736 14.5827H22.0356C22.3592 14.5827 22.6216 14.8451 22.6216 15.1687C22.6216 15.4922 22.3592 15.7546 22.0356 15.7546H19.8736C19.5501 15.7546 19.2877 15.4922 19.2877 15.1687C19.2877 14.8451 19.5501 14.5827 19.8736 14.5827ZM19.8736 17.0607H22.0356C22.3592 17.0607 22.6216 17.3231 22.6216 17.6467C22.6216 17.9702 22.3592 18.2326 22.0356 18.2326H19.8736C19.5501 18.2326 19.2877 17.9702 19.2877 17.6467C19.2877 17.3231 19.5501 17.0607 19.8736 17.0607ZM19.8736 19.5388H22.0356C22.3592 19.5388 22.6216 19.8012 22.6216 20.1247C22.6216 20.4482 22.3592 20.7106 22.0356 20.7106H19.8736C19.5501 20.7106 19.2877 20.4482 19.2877 20.1247C19.2877 19.8012 19.5501 19.5388 19.8736 19.5388ZM19.8736 22.0168H22.0356C22.3592 22.0168 22.6216 22.2792 22.6216 22.6027C22.6216 22.9263 22.3592 23.1887 22.0356 23.1887H19.8736C19.5501 23.1887 19.2877 22.9263 19.2877 22.6027C19.2877 22.2792 19.5501 22.0168 19.8736 22.0168ZM19.8736 24.4948H22.0356C22.3592 24.4948 22.6216 24.7572 22.6216 25.0808C22.6216 25.4043 22.3592 25.6667 22.0356 25.6667H19.8736C19.5501 25.6667 19.2877 25.4043 19.2877 25.0808C19.2877 24.7572 19.5501 24.4948 19.8736 24.4948ZM19.8736 27.2755H22.0356C22.3592 27.2755 22.6216 27.5379 22.6216 27.8614C22.6216 28.185 22.3592 28.4474 22.0356 28.4474H19.8736C19.5501 28.4474 19.2877 28.185 19.2877 27.8614C19.2877 27.5379 19.5501 27.2755 19.8736 27.2755ZM19.8736 29.9049H22.0356C22.3592 29.9049 22.6216 30.1673 22.6216 30.4908C22.6216 30.8144 22.3592 31.0768 22.0356 31.0768H19.8736C19.5501 31.0768 19.2877 30.8144 19.2877 30.4908C19.2877 30.1673 19.5501 29.9049 19.8736 29.9049Z" fill="#89D98E"/>
<path d="M28.6192 6.03516H18.7593V7.56377H28.6192V6.03516Z" fill="#89D98E"/>
<path d="M10.6513 47.4461V33.9951H2.9292V48.4374H9.65996C10.2065 48.4374 10.6513 47.9927 10.6513 47.4461Z" fill="#89D98E"/>
<path d="M11.1943 21.4551H13.3563C13.6799 21.4551 13.9423 21.1927 13.9423 20.8691C13.9423 20.5456 13.6799 20.2832 13.3563 20.2832H11.1943C10.8708 20.2832 10.6084 20.5456 10.6084 20.8691C10.6084 21.1927 10.8708 21.4551 11.1943 21.4551ZM13.9423 30.7812C13.9423 30.4577 13.6799 30.1953 13.3563 30.1953H11.1943C10.8708 30.1953 10.6084 30.4577 10.6084 30.7812C10.6084 31.1048 10.8708 31.3672 11.1943 31.3672H13.3563C13.6799 31.3672 13.9423 31.1048 13.9423 30.7812ZM11.1943 23.9331H13.3563C13.6799 23.9331 13.9423 23.6707 13.9423 23.3472C13.9423 23.0236 13.6799 22.7612 13.3563 22.7612H11.1943C10.8708 22.7612 10.6084 23.0236 10.6084 23.3472C10.6084 23.6707 10.8708 23.9331 11.1943 23.9331ZM11.1943 26.4111H13.3563C13.6799 26.4111 13.9423 26.1487 13.9423 25.8252C13.9423 25.5017 13.6799 25.2393 13.3563 25.2393H11.1943C10.8708 25.2393 10.6084 25.5017 10.6084 25.8252C10.6084 26.1487 10.8708 26.4111 11.1943 26.4111ZM11.1943 28.8892H13.3563C13.6799 28.8892 13.9423 28.6268 13.9423 28.3032C13.9423 27.9797 13.6799 27.7173 13.3563 27.7173H11.1943C10.8708 27.7173 10.6084 27.9797 10.6084 28.3032C10.6084 28.6268 10.8708 28.8892 11.1943 28.8892ZM19.8739 31.0766H22.0359C22.3595 31.0766 22.6219 30.8142 22.6219 30.4906C22.6219 30.1671 22.3595 29.9047 22.0359 29.9047H19.8739C19.5504 29.9047 19.288 30.1671 19.288 30.4906C19.288 30.8142 19.5504 31.0766 19.8739 31.0766ZM19.8739 15.7544H22.0359C22.3595 15.7544 22.6219 15.492 22.6219 15.1685C22.6219 14.8449 22.3595 14.5825 22.0359 14.5825H19.8739C19.5504 14.5825 19.288 14.8449 19.288 15.1685C19.288 15.492 19.5504 15.7544 19.8739 15.7544ZM19.8739 18.2324H22.0359C22.3595 18.2324 22.6219 17.97 22.6219 17.6465C22.6219 17.3229 22.3595 17.0605 22.0359 17.0605H19.8739C19.5504 17.0605 19.288 17.3229 19.288 17.6465C19.288 17.97 19.5504 18.2324 19.8739 18.2324ZM25.3427 31.0766H27.5047C27.8282 31.0766 28.0906 30.8142 28.0906 30.4906C28.0906 30.1671 27.8282 29.9047 27.5047 29.9047H25.3427C25.0191 29.9047 24.7567 30.1671 24.7567 30.4906C24.7567 30.8142 25.0191 31.0766 25.3427 31.0766ZM19.8739 20.7104H22.0359C22.3595 20.7104 22.6219 20.448 22.6219 20.1245C22.6219 19.801 22.3595 19.5386 22.0359 19.5386H19.8739C19.5504 19.5386 19.288 19.801 19.288 20.1245C19.288 20.448 19.5504 20.7104 19.8739 20.7104ZM19.8739 28.4472H22.0359C22.3595 28.4472 22.6219 28.1848 22.6219 27.8612C22.6219 27.5377 22.3595 27.2753 22.0359 27.2753H19.8739C19.5504 27.2753 19.288 27.5377 19.288 27.8612C19.288 28.1848 19.5504 28.4472 19.8739 28.4472ZM19.8739 23.1885H22.0359C22.3595 23.1885 22.6219 22.9261 22.6219 22.6025C22.6219 22.279 22.3595 22.0166 22.0359 22.0166H19.8739C19.5504 22.0166 19.288 22.279 19.288 22.6025C19.288 22.9261 19.5504 23.1885 19.8739 23.1885ZM19.8739 25.6665H22.0359C22.3595 25.6665 22.6219 25.4041 22.6219 25.0806C22.6219 24.757 22.3595 24.4946 22.0359 24.4946H19.8739C19.5504 24.4946 19.288 24.757 19.288 25.0806C19.288 25.4041 19.5504 25.6665 19.8739 25.6665ZM25.3427 18.2324H27.5047C27.8282 18.2324 28.0906 17.97 28.0906 17.6465C28.0906 17.3229 27.8282 17.0605 27.5047 17.0605H25.3427C25.0191 17.0605 24.7567 17.3229 24.7567 17.6465C24.7567 17.97 25.0191 18.2324 25.3427 18.2324ZM34.0224 28.8892H36.1844C36.5079 28.8892 36.7703 28.6268 36.7703 28.3032C36.7703 27.9797 36.5079 27.7173 36.1844 27.7173H34.0224C33.6988 27.7173 33.4364 27.9797 33.4364 28.3032C33.4364 28.6268 33.6988 28.8892 34.0224 28.8892ZM34.0224 33.8452H36.1844C36.5079 33.8452 36.7703 33.5828 36.7703 33.2593C36.7703 32.9357 36.5079 32.6733 36.1844 32.6733H34.0224C33.6988 32.6733 33.4364 32.9357 33.4364 33.2593C33.4364 33.5828 33.6988 33.8452 34.0224 33.8452ZM34.0224 26.4111H36.1844C36.5079 26.4111 36.7703 26.1487 36.7703 25.8252C36.7703 25.5017 36.5079 25.2393 36.1844 25.2393H34.0224C33.6988 25.2393 33.4364 25.5017 33.4364 25.8252C33.4364 26.1487 33.6988 26.4111 34.0224 26.4111ZM34.0224 31.3672H36.1844C36.5079 31.3672 36.7703 31.1048 36.7703 30.7812C36.7703 30.4577 36.5079 30.1953 36.1844 30.1953H34.0224C33.6988 30.1953 33.4364 30.4577 33.4364 30.7812C33.4364 31.1048 33.6988 31.3672 34.0224 31.3672ZM34.0224 23.9331H36.1844C36.5079 23.9331 36.7703 23.6707 36.7703 23.3472C36.7703 23.0236 36.5079 22.7612 36.1844 22.7612H34.0224C33.6988 22.7612 33.4364 23.0236 33.4364 23.3472C33.4364 23.6707 33.6988 23.9331 34.0224 23.9331ZM34.0224 21.4551H36.1844C36.5079 21.4551 36.7703 21.1927 36.7703 20.8691C36.7703 20.5456 36.5079 20.2832 36.1844 20.2832H34.0224C33.6988 20.2832 33.4364 20.5456 33.4364 20.8691C33.4364 21.1927 33.6988 21.4551 34.0224 21.4551ZM25.3427 28.4472H27.5047C27.8282 28.4472 28.0906 28.1848 28.0906 27.8612C28.0906 27.5377 27.8282 27.2753 27.5047 27.2753H25.3427C25.0191 27.2753 24.7567 27.5377 24.7567 27.8612C24.7567 28.1848 25.0191 28.4472 25.3427 28.4472ZM25.3427 20.7104H27.5047C27.8282 20.7104 28.0906 20.448 28.0906 20.1245C28.0906 19.801 27.8282 19.5386 27.5047 19.5386H25.3427C25.0191 19.5386 24.7567 19.801 24.7567 20.1245C24.7567 20.448 25.0191 20.7104 25.3427 20.7104ZM34.0224 36.3232H36.1844C36.5079 36.3232 36.7703 36.0608 36.7703 35.7373C36.7703 35.4138 36.5079 35.1514 36.1844 35.1514H34.0224C33.6988 35.1514 33.4364 35.4138 33.4364 35.7373C33.4364 36.0608 33.6988 36.3232 34.0224 36.3232ZM25.3427 25.6665H27.5047C27.8282 25.6665 28.0906 25.4041 28.0906 25.0806C28.0906 24.757 27.8282 24.4946 27.5047 24.4946H25.3427C25.0191 24.4946 24.7567 24.757 24.7567 25.0806C24.7567 25.4041 25.0191 25.6665 25.3427 25.6665ZM25.3427 23.1885H27.5047C27.8282 23.1885 28.0906 22.9261 28.0906 22.6025C28.0906 22.279 27.8282 22.0166 27.5047 22.0166H25.3427C25.0191 22.0166 24.7567 22.279 24.7567 22.6025C24.7567 22.9261 25.0191 23.1885 25.3427 23.1885ZM25.3427 15.7544H27.5047C27.8282 15.7544 28.0906 15.492 28.0906 15.1685C28.0906 14.8449 27.8282 14.5825 27.5047 14.5825H25.3427C25.0191 14.5825 24.7567 14.8449 24.7567 15.1685C24.7567 15.492 25.0191 15.7544 25.3427 15.7544Z" fill="#0A7B39"/>
<path d="M2.34326 49.6094H9.65996C10.6232 49.6094 11.4412 48.9763 11.7204 48.1044H28.231C28.2904 48.1089 28.353 48.1111 28.4193 48.1111C32.0354 48.1104 45.6068 41.4565 47.173 40.6826C47.9946 40.2766 48.4086 39.373 48.1797 38.4855C47.9508 37.598 47.1521 37.0075 46.2359 37.0494C44.9707 37.1076 42.4456 37.5914 39.6564 38.1833V18.5295C39.6564 18.206 39.394 17.9436 39.0705 17.9436H38.418V14.0568C38.418 13.7333 38.1556 13.4709 37.832 13.4709C37.5085 13.4709 37.2461 13.7333 37.2461 14.0568V17.9436H35.9616V13.0605C35.9616 12.737 35.6992 12.4746 35.3757 12.4746C35.0521 12.4746 34.7897 12.737 34.7897 13.0605V17.9436H31.7211V13.0394H32.0141C32.3376 13.0394 32.6 12.777 32.6 12.4534V8.14961C32.6 7.82607 32.3376 7.56367 32.0141 7.56367H29.7907V5.44912C29.7907 5.12559 29.5283 4.86318 29.2048 4.86318H24.2748V0.976562C24.2748 0.653027 24.0124 0.390625 23.6889 0.390625C23.3653 0.390625 23.1029 0.653027 23.1029 0.976562V4.86318H18.173C17.8494 4.86318 17.587 5.12559 17.587 5.44912V7.56367H15.3637C15.0401 7.56367 14.7777 7.82607 14.7777 8.14961V12.4534C14.7777 12.777 15.0401 13.0394 15.3637 13.0394H15.6566V17.9436H12.588V13.0605C12.588 12.737 12.3256 12.4746 12.0021 12.4746C11.6785 12.4746 11.4161 12.737 11.4161 13.0605V17.9436H10.1315V14.0568C10.1315 13.7333 9.86914 13.4709 9.54561 13.4709C9.22207 13.4709 8.95967 13.7333 8.95967 14.0568V17.9436H8.30713C7.98359 17.9436 7.72119 18.206 7.72119 18.5295V32.8232H2.34326C2.01973 32.8232 1.75732 33.0856 1.75732 33.4092V49.0233C1.75732 49.3469 2.01973 49.6093 2.34326 49.6093V49.6094ZM31.7212 19.1154H38.4847V38.4347C37.4188 38.6655 36.3354 38.9054 35.2865 39.1376C34.4455 39.3238 33.6226 39.506 32.8501 39.6743C33.1649 39.2588 33.3614 38.8114 33.3978 38.3693C33.4649 37.5526 32.987 36.8719 32.0866 36.5017L31.7212 36.3515V19.1154ZM18.759 6.03516H28.6189V7.56377H18.759V6.03516ZM15.9497 8.73565H31.4282V11.8676H15.9497V8.73565ZM30.5493 13.0395V35.8697L21.9184 32.3216C20.6558 31.8026 19.24 31.8015 17.9321 32.3187L16.8287 32.755V13.0395H30.5494H30.5493ZM18.363 33.4084C19.3875 33.0032 20.492 33.0022 21.4728 33.4055L30.9049 37.283C30.9068 37.2838 30.9088 37.2846 30.9107 37.2854L31.6411 37.5856C32.2654 37.8423 32.2396 38.1555 32.2299 38.2733C32.173 38.9641 31.1047 39.9653 29.7407 40.315L23.6615 39.4346C22.2449 39.1873 21.0366 39.6453 20.2584 40.7244C20.0691 40.9869 20.1284 41.3531 20.3908 41.5424C20.4945 41.6172 20.6144 41.6531 20.7331 41.6531C20.9149 41.6531 21.0943 41.5686 21.2088 41.4099C21.8529 40.5166 22.7923 40.471 23.467 40.5901C23.4729 40.5912 23.4789 40.5922 23.4849 40.593L29.6858 41.491C29.6883 41.4914 29.6907 41.4914 29.6932 41.4917C29.7047 41.4933 29.7163 41.4941 29.7279 41.4949C29.7363 41.4955 29.7447 41.4963 29.753 41.4965C29.7622 41.4968 29.7715 41.4965 29.7808 41.4963C29.7917 41.4961 29.8025 41.4959 29.8134 41.4951C29.82 41.4946 29.8266 41.4937 29.8332 41.493C29.8465 41.4915 29.8596 41.4899 29.8726 41.4876C29.8741 41.4873 29.8757 41.4872 29.8772 41.4869C30.2801 41.4117 30.7424 41.3192 31.2475 41.2145C31.2514 41.2137 31.2553 41.2129 31.2592 41.212C32.4916 40.9562 33.9844 40.6258 35.5396 40.2815C36.7365 40.0165 37.9789 39.7415 39.1855 39.4818C39.1879 39.4813 39.1902 39.4809 39.1926 39.4804C42.206 38.8318 44.9949 38.2794 46.2895 38.2198C46.651 38.2033 46.9544 38.4275 47.0447 38.7778C47.1352 39.1283 46.9779 39.4715 46.6535 39.6317C39.0351 43.3968 30.2881 47.1156 28.3081 46.9346C28.2904 46.933 28.2729 46.9322 28.2552 46.9322H11.8231V35.994L18.3629 33.4081L18.363 33.4084ZM8.89326 19.1155H15.6568V33.2184L11.8232 34.7342V33.4093C11.8232 33.0857 11.5608 32.8233 11.2373 32.8233H8.89326V19.1155ZM2.9293 33.9952H10.6514V47.4462C10.6514 47.9928 10.2067 48.4375 9.66016 48.4375H2.9292L2.9293 33.9952Z" fill="#0A7B39"/>
</svg>
